<?xml version="1.0" standalone="no"?>
<!DOCTYPE svg PUBLIC "-//W3C//DTD SVG 20010904//EN"
 "http://www.w3.org/TR/2001/REC-SVG-20010904/DTD/svg10.dtd">
<svg version="1.0" xmlns="http://www.w3.org/2000/svg"
 width="250.000000pt" height="250.000000pt" viewBox="0 0 250.000000 250.000000"
 preserveAspectRatio="xMidYMid meet">

<g transform="translate(0.000000,250.000000) scale(0.100000,-0.100000)"
fill="#000000" stroke="none">
<path d="M1225 2444 c-138 -29 -174 -43 -266 -101 -233 -145 -294 -197 -335
-285 -27 -59 -29 -73 -32 -205 -2 -93 -7 -145 -15 -151 -7 -5 -44 -23 -84 -40
-125 -53 -256 -150 -289 -213 -18 -36 -18 -89 1 -115 32 -47 79 -59 239 -60
111 -1 150 -5 157 -15 4 -7 11 -43 15 -79 9 -87 33 -132 82 -154 44 -20 66
-53 105 -156 22 -59 23 -72 15 -134 -5 -38 -7 -79 -4 -91 15 -60 226 -280 349
-364 26 -18 111 -62 190 -97 78 -36 177 -84 219 -106 42 -22 85 -38 95 -36 11
2 32 31 52 73 28 58 58 94 176 210 140 139 182 190 224 273 31 60 29 106 -8
177 -17 33 -31 71 -31 85 0 14 16 56 36 94 28 51 44 71 69 82 52 21 71 54 78
132 3 37 15 95 26 127 25 70 27 122 6 172 -9 20 -20 93 -26 162 -5 69 -14 151
-19 181 -5 30 -14 93 -20 139 -12 105 -52 194 -112 253 -53 52 -326 191 -464
238 -82 27 -104 30 -205 29 -80 0 -147 -8 -224 -25z m420 -60 c112 -31 309
-126 330 -158 27 -41 39 -184 25 -299 -7 -56 -15 -141 -19 -189 -7 -98 -17
-116 -52 -97 -13 7 -71 30 -129 50 -58 21 -98 38 -90 38 22 1 43 64 35 102 -4
17 -1 75 5 128 15 114 9 133 -47 152 -66 21 -121 58 -132 89 -9 26 -15 30 -47
30 -44 0 -168 78 -193 121 -9 16 -23 30 -31 32 -32 8 79 25 165 26 70 1 112
-5 180 -25z m-760 -177 c-62 -49 -143 -139 -150 -167 -4 -14 -10 -92 -14 -175
l-6 -150 -28 -3 -29 -4 4 149 c4 161 9 179 71 250 28 32 170 134 186 133 3 -1
-12 -15 -34 -33z m673 -16 c2 -12 -5 -29 -16 -39 -11 -9 -23 -27 -27 -39 -6
-23 -5 -23 98 -23 127 0 132 -4 124 -92 -6 -67 -28 -98 -70 -98 -18 0 -13 -8
28 -50 27 -27 45 -50 40 -51 -63 -6 -92 4 -140 52 -50 49 -85 63 -85 34 0 -11
-11 -15 -39 -15 -36 0 -45 6 -132 101 -74 81 -97 100 -115 96 -17 -3 -24 2
-29 21 -3 13 -4 26 -2 28 2 3 69 22 148 43 79 22 155 44 169 50 33 13 44 9 48
-18z m-468 -108 c0 -73 -5 -119 -20 -165 -11 -34 -20 -82 -20 -105 0 -24 -4
-43 -10 -43 -17 0 -11 91 10 158 15 48 20 92 20 175 0 76 3 107 10 97 5 -8 10
-61 10 -117z m1012 51 c22 -27 47 -63 54 -80 14 -33 29 -194 40 -422 l7 -144
-54 35 c-30 18 -61 36 -69 39 -13 5 -14 33 -11 194 7 326 5 356 -19 403 -28
55 -6 45 52 -25z m-56 -278 c-3 -137 -10 -254 -15 -259 -15 -15 -32 2 -22 21
10 20 23 228 25 404 1 80 4 119 9 105 5 -12 6 -134 3 -271z m-899 92 c-3 -8
-6 -5 -6 6 -1 11 2 17 5 13 3 -3 4 -12 1 -19z m-147 -178 c0 -5 -12 -10 -27
-9 l-28 1 25 8 c14 4 26 8 28 9 1 1 2 -3 2 -9z m-73 -16 c-3 -3 -12 -4 -19 -1
-8 3 -5 6 6 6 11 1 17 -2 13 -5z m603 -33 c129 -21 390 -103 390 -122 0 -9
-14 -6 -164 37 -125 36 -317 74 -372 74 -38 0 -64 9 -64 21 0 14 86 10 210
-10z m157 13 c-3 -3 -12 -4 -19 -1 -8 3 -5 6 6 6 11 1 17 -2 13 -5z m-930 -10
c-3 -3 -12 -4 -19 -1 -8 3 -5 6 6 6 11 1 17 -2 13 -5z m-67 -75 c12 -8 10 -9
-9 -4 -16 5 -21 4 -17 -4 4 -6 2 -11 -4 -11 -6 0 -62 -24 -124 -53 -125 -60
-260 -146 -277 -178 -6 -11 -13 -18 -16 -16 -12 12 32 71 85 113 70 56 131 88
247 130 105 38 96 37 115 23z m974 -38 c19 -7 18 -8 -5 -15 -36 -11 -251 -20
-293 -12 -49 9 -45 24 7 29 78 7 272 6 291 -2z m389 -117 c51 -26 67 -45 67
-79 0 -61 -11 -95 -31 -95 -17 0 -18 5 -13 39 8 50 -10 105 -43 131 -31 24
-23 26 20 4z m138 -25 c7 -14 8 -38 3 -68 l-7 -46 -13 40 c-23 75 -12 127 17
74z m-1491 -46 c-4 -56 -5 -57 -8 -14 -3 38 2 71 10 71 2 0 1 -26 -2 -57z
m1544 -29 c-1 -27 -11 -83 -23 -124 -11 -41 -21 -88 -21 -103 0 -39 -17 -67
-41 -67 -15 0 -19 5 -15 18 2 9 10 44 16 77 6 33 20 83 30 110 10 28 21 72 25
98 10 63 30 56 29 -9z m-764 31 c20 -25 59 -172 54 -208 -3 -25 1 -39 16 -52
30 -28 26 -49 -7 -40 -16 5 -35 7 -43 6 -61 -7 -104 -5 -107 7 -3 7 1 10 10 7
11 -5 15 19 21 136 4 79 9 146 12 151 8 13 30 9 44 -7z m-789 -198 c6 -40 18
-83 26 -95 16 -26 12 -37 -11 -29 -9 4 -17 25 -21 54 -3 26 -12 77 -20 113
-12 55 -12 62 0 47 7 -10 19 -51 26 -90z m216 -35 c16 -13 14 -14 -25 -9 -60
7 -73 20 -96 94 -6 17 -4 22 6 18 8 -3 25 -2 38 3 22 8 25 5 41 -42 10 -27 26
-56 36 -64z m1197 -103 c-29 -94 -55 -149 -78 -168 -9 -8 -16 -26 -16 -41 0
-46 -40 -92 -115 -132 -66 -35 -203 -84 -211 -75 -2 2 21 14 52 26 70 30 65
37 -7 10 -30 -12 -92 -29 -139 -40 -139 -31 -166 -23 -41 11 40 11 106 37 147
58 l75 38 -102 -4 c-149 -6 -199 15 -199 84 l0 27 73 -6 c45 -4 101 -18 151
-37 69 -28 87 -31 135 -25 57 7 134 35 145 53 3 5 -10 2 -30 -9 -51 -25 -135
-34 -189 -19 -24 7 -43 15 -42 19 1 3 -5 17 -13 31 -9 14 -22 38 -30 54 -19
37 -40 45 -40 15 0 -21 -1 -20 -22 7 -13 16 -22 32 -20 37 1 4 -11 14 -28 21
-17 7 -27 15 -23 19 3 4 34 -8 68 -27 l62 -34 -1 48 c-1 31 -8 55 -19 67 -9
11 -17 23 -17 27 0 4 78 4 173 0 188 -7 276 3 305 37 9 10 17 17 19 16 1 -2
-9 -41 -23 -88z m-1259 -3 l36 -48 -30 7 c-17 4 -31 5 -31 2 0 -13 34 -85 48
-101 17 -19 16 -19 -11 -1 -15 10 -34 30 -42 45 -11 22 -55 163 -55 178 0 11
54 -42 85 -82z m478 69 c-3 -9 -8 -14 -10 -11 -3 3 -2 9 2 15 9 16 15 13 8 -4z
m313 -97 c28 -32 28 -32 1 -9 -15 14 -46 28 -70 32 l-42 6 41 2 c34 1 45 -4
70 -31z m-436 -118 c-6 -11 -13 -20 -16 -20 -2 0 0 9 6 20 6 11 13 20 16 20 2
0 0 -9 -6 -20z m210 10 c11 -7 7 -10 -18 -10 -20 0 -31 4 -27 10 8 13 26 13
45 0z m148 -7 c-10 -2 -28 -2 -40 0 -13 2 -5 4 17 4 22 1 32 -1 23 -4z m48
-39 c18 -14 16 -15 -21 -10 -22 3 -69 6 -105 7 -48 1 -57 3 -35 8 57 14 142
11 161 -5z m-226 -4 c-14 -4 -36 -8 -50 -9 -20 -1 -22 1 -10 9 8 5 31 9 50 9
32 -1 33 -2 10 -9z m649 -156 c-19 -23 -308 -200 -390 -238 -78 -36 -88 -40
-129 -37 -18 2 -13 6 21 15 59 16 181 86 362 206 93 63 143 91 145 82 2 -7 -2
-20 -9 -28z m-1109 -16 c0 -17 -3 -18 -15 -8 -8 7 -15 21 -15 32 0 17 3 18 15
8 8 -7 15 -21 15 -32z m1064 -86 c-65 -61 -257 -182 -269 -170 -3 3 32 30 77
60 46 31 119 83 163 117 44 33 85 60 90 60 6 0 -22 -30 -61 -67z m97 25 c-9
-40 -23 -65 -69 -131 -89 -128 -105 -125 -42 7 61 128 128 203 111 124z
m-1136 -97 c10 -11 16 -20 13 -20 -3 0 -13 9 -23 20 -10 11 -16 20 -13 20 3 0
13 -9 23 -20z m80 -80 c10 -11 16 -20 13 -20 -3 0 -13 9 -23 20 -10 11 -16 20
-13 20 3 0 13 -9 23 -20z"/>
<path d="M1383 2134 c-11 -24 -9 -30 19 -65 17 -21 35 -39 38 -39 9 0 20 91
13 102 -2 5 -13 8 -24 8 -10 0 -19 5 -19 10 0 19 -15 10 -27 -16z"/>
<path d="M1500 2016 c0 -8 -3 -22 -6 -31 -6 -14 3 -16 77 -13 82 3 84 4 84 28
0 24 -2 25 -77 28 -63 2 -78 0 -78 -12z"/>
</g>
</svg>
